<svg width="46" height="46" viewBox="0 0 46 46" fill="none" xmlns="http://www.w3.org/2000/svg">
<g clip-path="url(#clip0)">
<path d="M17.8008 40.1691C18.8147 39.8649 19.39 38.7964 19.0859 37.7827C18.7817 36.7687 17.7132 36.1934 16.6993 36.4975L17.8008 40.1691ZM4.29821 30.724C3.27126 30.4671 2.23065 31.0916 1.97391 32.1185C1.71717 33.1455 2.34155 34.186 3.36848 34.4427L4.29821 30.724ZM30.6667 44.0833V46C31.7251 46 32.5833 45.1419 32.5833 44.0833H30.6667ZM30.6667 36.6658L28.7558 36.5155C28.7519 36.5656 28.75 36.6156 28.75 36.6658H30.6667ZM28.865 31.6633L28.6526 29.7585C27.9258 29.8394 27.3085 30.327 27.0612 31.0151C26.8138 31.7034 26.9798 32.4723 27.4888 32.9975L28.865 31.6633ZM41.2083 18.2467H43.125V18.2463L41.2083 18.2467ZM38.3333 11.0592L36.5376 10.389C36.2812 11.0762 36.4393 11.8495 36.9451 12.3807L38.3333 11.0592ZM38.1608 3.83332L39.9225 3.07825C39.698 2.55452 39.252 2.15781 38.7058 1.99577L38.1608 3.83332ZM30.6667 6.66999L30.1653 8.51991C30.7008 8.66506 31.2729 8.57099 31.7339 8.26205L30.6667 6.66999ZM17.2499 6.66999L16.1827 8.26205C16.6436 8.57099 17.2158 8.66506 17.7513 8.51991L17.2499 6.66999ZM9.75575 3.83332L9.21073 1.99577C8.66444 2.15781 8.21856 2.55452 7.99408 3.07825L9.75575 3.83332ZM9.58325 11.0592L10.9714 12.3808C11.4772 11.8495 11.6354 11.0762 11.379 10.389L9.58325 11.0592ZM6.70825 18.3042H8.62496L8.6249 18.294L6.70825 18.3042ZM19.0516 31.7208L20.429 33.0537C20.9342 32.5316 21.1008 31.7685 20.8591 31.0831C20.6174 30.3979 20.0089 29.9084 19.2878 29.8187L19.0516 31.7208ZM17.2499 36.6658H19.1666C19.1666 36.621 19.165 36.5761 19.1619 36.5313L17.2499 36.6658ZM17.2499 44.0833H15.3333C15.3333 45.1419 16.1914 46 17.2499 46V44.0833ZM16.6993 36.4975C14.5214 37.1509 13.0772 37.1482 12.0865 36.9163C11.1206 36.6902 10.4048 36.2047 9.74072 35.5405C9.39791 35.1977 9.07629 34.8147 8.73407 34.3861C8.4155 33.9871 8.02845 33.482 7.65828 33.0475C6.90944 32.1684 5.86197 31.1148 4.29821 30.724L3.36848 34.4427C3.72139 34.531 4.11142 34.7952 4.74018 35.5333C5.05881 35.9072 5.3456 36.2857 5.73828 36.7776C6.10734 37.2399 6.53441 37.7554 7.03014 38.2511C8.04317 39.264 9.36383 40.2161 11.213 40.6488C13.0374 41.0757 15.187 40.9532 17.8008 40.1691L16.6993 36.4975ZM32.5833 44.0833V36.6658H28.75V44.0833H32.5833ZM32.5774 36.8161C32.766 34.4187 31.915 32.0559 30.241 30.3291L27.4888 32.9975C28.3966 33.9338 28.8581 35.2153 28.7558 36.5155L32.5774 36.8161ZM29.0772 33.5681C32.1941 33.2208 35.7497 32.4302 38.5269 30.0947C41.3975 27.6811 43.125 23.8937 43.125 18.2467H39.2917C39.2917 23.0646 37.8565 25.6502 36.06 27.1609C34.1702 28.7498 31.5541 29.435 28.6526 29.7585L29.0772 33.5681ZM43.125 18.2463C43.1244 15.0784 41.9058 12.032 39.7214 9.73757L36.9451 12.3807C38.451 13.9626 39.2911 16.0629 39.2917 18.247L43.125 18.2463ZM40.1289 11.7293C41.175 8.92632 41.101 5.82811 39.9225 3.07825L36.399 4.58839C37.1893 6.4322 37.2389 8.50958 36.5376 10.389L40.1289 11.7293ZM38.1608 3.83332C38.7058 1.99577 38.704 1.99524 38.7021 1.99468C38.7013 1.99449 38.6996 1.99395 38.6983 1.99357C38.6958 1.99284 38.6931 1.99209 38.6906 1.99133C38.6854 1.98983 38.6801 1.98832 38.6745 1.98676C38.6634 1.98368 38.6519 1.98054 38.6396 1.97733C38.6151 1.97093 38.5883 1.96432 38.5591 1.95767C38.5005 1.94439 38.4326 1.93095 38.3552 1.91859C38.2001 1.89386 38.0081 1.87369 37.7783 1.86736C37.3177 1.85469 36.7143 1.89788 35.9605 2.06523C34.4563 2.39915 32.3641 3.22466 29.5995 5.07793L31.7339 8.26205C34.2016 6.60781 35.8564 6.01498 36.7912 5.80745C37.2569 5.70406 37.546 5.69574 37.6729 5.69925C37.7369 5.70102 37.7624 5.70585 37.7514 5.70408C37.7461 5.70324 37.7319 5.70079 37.7091 5.69559C37.6978 5.693 37.6842 5.68975 37.6686 5.68566C37.6608 5.68363 37.6525 5.68139 37.6437 5.67892C37.6393 5.67769 37.6347 5.67641 37.6301 5.67506C37.6278 5.67439 37.6253 5.6737 37.623 5.67299C37.6219 5.67265 37.62 5.67211 37.6194 5.67194C37.6175 5.6714 37.6157 5.67085 38.1608 3.83332ZM31.1679 4.82006C26.4466 3.54047 21.4699 3.54047 16.7486 4.82006L17.7513 8.51991C21.8159 7.41831 26.1006 7.41831 30.1653 8.51991L31.1679 4.82006ZM18.3171 5.07793C15.5524 3.22466 13.4602 2.39915 11.956 2.06523C11.2023 1.89788 10.5988 1.85469 10.1382 1.86736C9.90839 1.87369 9.71638 1.89386 9.5613 1.91859C9.48387 1.93095 9.41596 1.94439 9.35747 1.95767C9.32824 1.96432 9.3014 1.97093 9.27693 1.97733C9.2647 1.98054 9.25307 1.98368 9.24204 1.98676C9.23653 1.98832 9.23116 1.98983 9.22593 1.99133C9.22332 1.99209 9.22075 1.99284 9.21822 1.99357C9.21696 1.99395 9.21508 1.99449 9.21445 1.99468C9.21259 1.99524 9.21073 1.99577 9.75575 3.83332C10.3008 5.67085 10.299 5.6714 10.2971 5.67194C10.2965 5.67211 10.2947 5.67265 10.2935 5.67299C10.2911 5.6737 10.2888 5.67439 10.2864 5.67506C10.2817 5.67641 10.2772 5.67769 10.2728 5.67892C10.264 5.68139 10.2557 5.68363 10.2479 5.68566C10.2323 5.68975 10.2188 5.693 10.2074 5.69561C10.1846 5.70079 10.1704 5.70324 10.165 5.70408C10.1541 5.70585 10.1796 5.70102 10.2436 5.69925C10.3706 5.69574 10.6596 5.70406 11.1253 5.80745C12.0601 6.01498 13.7149 6.60781 16.1827 8.26205L18.3171 5.07793ZM7.99408 3.07825C6.81547 5.82811 6.7415 8.92632 7.78756 11.7293L11.379 10.389C10.6776 8.50958 10.7272 6.4322 11.5174 4.58839L7.99408 3.07825ZM8.1951 9.73753C5.99448 12.049 4.77466 15.1229 4.79162 18.3143L8.6249 18.294C8.61321 16.0937 9.4542 13.9743 10.9714 12.3808L8.1951 9.73753ZM4.79158 18.3042C4.79158 23.919 6.52285 27.6843 9.38953 30.0947C12.1601 32.4244 15.7081 33.2369 18.8154 33.6229L19.2878 29.8187C16.3768 29.4572 13.7531 28.7555 11.8566 27.1609C10.0562 25.6469 8.62492 23.0776 8.62492 18.3042H4.79158ZM17.6743 30.388C16.0205 32.0969 15.1711 34.4281 15.338 36.8004L19.1619 36.5313C19.0714 35.2448 19.532 33.9806 20.429 33.0537L17.6743 30.388ZM15.3333 36.6658V44.0833H19.1666V36.6658H15.3333ZM30.6667 42.1666H17.2499V46H30.6667V42.1666Z" fill="#40B8B3"/>
</g>
<defs>
<clipPath id="clip0">
<rect width="46" height="46" fill="white"/>
</clipPath>
</defs>
</svg>
